<?xml version="1.0" standalone="no"?>
<svg
  width="600"
  height="600"
  viewBox="0 0 600 600"
  xmlns="http://www.w3.org/2000/svg"
>
  <g transform="translate(300,300)">
    <path d="M114.8,-130.5C155.5,-102.7,199.9,-72.9,214.1,-31.9C228.4,9.1,212.5,61.3,184,102.2C155.6,143,114.6,172.5,68.2,190.9C21.9,209.2,-29.8,216.4,-74.1,201.3C-118.4,186.1,-155.3,148.5,-180.3,104.5C-205.3,60.4,-218.4,9.8,-211.6,-38.8C-204.9,-87.5,-178.3,-134.1,-139.7,-162.3C-101.1,-190.5,-50.6,-200.3,-6.7,-192.2C37.1,-184.2,74.1,-158.4,114.8,-130.5Z" fill="#5b0404" />
  </g>
</svg>
  